{"accessors" : [{"bufferView" : 0, "byteOffset" : 0, "componentType" : 5123, "count" : 24420, "type" : "SCALAR", "max" : [4600], "min" : [0]}, {"bufferView" : 1, "byteOffset" : 0, "componentType" : 5126, "count" : 4601, "type" : "VEC3", "max" : [0.06379871070384979, 0.10883934795856476, 0.038579996675252914], "min" : [-0.060539618134498596, -3.725290076417309E-09, -0.03572801128029823], "name" : "POSITION"}, {"bufferView" : 1, "byteOffset" : 12, "componentType" : 5126, "count" : 4601, "type" : "VEC3", "max" : [0.9972590208053589, 1.0000030994415283, 0.9991404414176941], "min" : [-0.9989745020866394, -0.9971693754196167, -0.9947928786277771], "name" : "NORMAL"}, {"bufferView" : 1, "byteOffset" : 24, "componentType" : 5126, "count" : 4601, "type" : "VEC2", "max" : [0.9999569058418274, 0.9999793171882629], "min" : [0.0001835557777667418, 0.02414005994796753], "name" : "TEXCOORD_0"}], "asset" : {"generator" : "Aspose.3D 24.6.0", "version" : "2.0"}, "buffers" : [{"uri" : "buffer.bin", "byteLength" : 2273232}], "bufferViews" : [{"buffer" : 0, "byteOffset" : 0, "byteLength" : 48840, "target" : 34963}, {"buffer" : 0, "byteOffset" : 48844, "byteLength" : 147232, "byteStride" : 32, "target" : 34962}, {"buffer" : 0, "byteOffset" : 196080, "byteLength" : 629272}, {"buffer" : 0, "byteOffset" : 825356, "byteLength" : 139344}, {"buffer" : 0, "byteOffset" : 964704, "byteLength" : 1308525}], "images" : [{"mimeType" : "image/png", "bufferView" : 2}, {"mimeType" : "image/png", "bufferView" : 3}, {"mimeType" : "image/png", "bufferView" : 4}], "materials" : [{"name" : "Texture", "pbrMetallicRoughness" : {"baseColorFactor" : [1, 1, 1, 1], "baseColorTexture" : {"index" : 2, "texCoord" : 0}, "metallicFactor" : 0, "roughnessFactor" : 0.8999999761581421}, "normalTexture" : {"index" : 0, "texCoord" : 0, "scale" : 1}, "occlusionTexture" : {"index" : 1, "texCoord" : 0, "strength" : 0}, "emissiveFactor" : [0, 0, 0], "alphaMode" : "OPAQUE", "doubleSided" : false}], "meshes" : [{"primitives" : [{"attributes" : {"POSITION" : 1, "NORMAL" : 2, "TEXCOORD_0" : 3}, "indices" : 0, "material" : 0, "mode" : 4}], "name" : "Mesh"}], "nodes" : [{"mesh" : 0, "name" : "ObjectCapture"}], "samplers" : [{"magFilter" : 9729, "minFilter" : 9729, "wrapS" : 10497, "wrapT" : 10497}, {"magFilter" : 9729, "minFilter" : 9729, "wrapS" : 10497, "wrapT" : 10497}, {"magFilter" : 9729, "minFilter" : 9729, "wrapS" : 10497, "wrapT" : 10497}], "scene" : 0, "scenes" : [{"nodes" : [0]}], "textures" : [{"sampler" : 0, "source" : 0, "name" : "normal_texture"}, {"sampler" : 1, "source" : 1, "name" : "occlusion_texture"}, {"sampler" : 2, "source" : 2, "name" : "diffuseColor_texture"}]}